<svg xmlns="http://www.w3.org/2000/svg" style="display:none">
<defs>
    <symbol id="i-peak" viewBox="0 0 24 24"><path d="M4 19 L10.5 7 L13.5 12.5 L16 8.5 L20 19 Z" fill="none" stroke="currentColor" stroke-width="1.8" stroke-linejoin="round"/></symbol>
    <symbol id="i-dash" viewBox="0 0 24 24"><rect x="3.5" y="3.5" width="7" height="9" rx="2" fill="none" stroke="currentColor" stroke-width="1.5"/><rect x="13.5" y="3.5" width="7" height="5" rx="2" fill="none" stroke="currentColor" stroke-width="1.5"/><rect x="13.5" y="11.5" width="7" height="9" rx="2" fill="none" stroke="currentColor" stroke-width="1.5"/><rect x="3.5" y="15.5" width="7" height="5" rx="2" fill="none" stroke="currentColor" stroke-width="1.5"/></symbol>
    <symbol id="i-check-sq" viewBox="0 0 24 24"><rect x="3.5" y="3.5" width="17" height="17" rx="5" fill="none" stroke="currentColor" stroke-width="1.5"/><path d="m8.5 12 2.5 2.5 5-5.5" fill="none" stroke="currentColor" stroke-width="1.5" stroke-linecap="round" stroke-linejoin="round"/></symbol>
    <symbol id="i-repeat" viewBox="0 0 24 24"><path d="M17 2.5 20 5.5 17 8.5 M20 5.5 H7.5 A4 4 0 0 0 3.5 9.5 V11 M7 21.5 4 18.5 7 15.5 M4 18.5 H16.5 A4 4 0 0 0 20.5 14.5 V13" fill="none" stroke="currentColor" stroke-width="1.5" stroke-linecap="round" stroke-linejoin="round"/></symbol>
    <symbol id="i-timer" viewBox="0 0 24 24"><circle cx="12" cy="13.5" r="7.5" fill="none" stroke="currentColor" stroke-width="1.5"/><path d="M12 10v3.5l2.5 1.5 M9.5 2.5h5" fill="none" stroke="currentColor" stroke-width="1.5" stroke-linecap="round"/></symbol>
    <symbol id="i-target" viewBox="0 0 24 24"><circle cx="12" cy="12" r="8.5" fill="none" stroke="currentColor" stroke-width="1.5"/><circle cx="12" cy="12" r="4.75" fill="none" stroke="currentColor" stroke-width="1.5"/><circle cx="12" cy="12" r="1.4" fill="currentColor"/></symbol>
    <symbol id="i-scope" viewBox="0 0 24 24"><path d="m4 13 9.5-7.5 3 4L7 17Z M14.5 6.5l2-1.5 3 4-2 1.5 M7 17l-2.5 4.5 M9.5 15.5 11 21.5" fill="none" stroke="currentColor" stroke-width="1.5" stroke-linecap="round" stroke-linejoin="round"/></symbol>
    <symbol id="i-book" viewBox="0 0 24 24"><path d="M4.5 19a2.5 2.5 0 0 1 2.5-2.5h12.5V3H7A2.5 2.5 0 0 0 4.5 5.5Z M4.5 19A2.5 2.5 0 0 0 7 21.5h12.5V16.5" fill="none" stroke="currentColor" stroke-width="1.5" stroke-linecap="round" stroke-linejoin="round"/></symbol>
    <symbol id="i-pen" viewBox="0 0 24 24"><path d="M12 20h9 M16.5 3.5a2.1 2.1 0 0 1 3 3L7 19l-4 1 1-4Z" fill="none" stroke="currentColor" stroke-width="1.5" stroke-linecap="round" stroke-linejoin="round"/></symbol>
    <symbol id="i-grid" viewBox="0 0 24 24"><circle cx="7" cy="7" r="2.6" fill="none" stroke="currentColor" stroke-width="1.5"/><circle cx="17" cy="7" r="2.6" fill="none" stroke="currentColor" stroke-width="1.5"/><circle cx="7" cy="17" r="2.6" fill="none" stroke="currentColor" stroke-width="1.5"/><circle cx="17" cy="17" r="2.6" fill="none" stroke="currentColor" stroke-width="1.5"/></symbol>
    <symbol id="i-search" viewBox="0 0 24 24"><circle cx="11" cy="11" r="7" fill="none" stroke="currentColor" stroke-width="1.5"/><path d="m20.5 20.5-4.5-4.5" stroke="currentColor" stroke-width="1.5" stroke-linecap="round"/></symbol>
    <symbol id="i-bell" viewBox="0 0 24 24"><path d="M18 9a6 6 0 1 0-12 0c0 6-2.5 7.5-2.5 7.5h17S18 15 18 9 M10 20a2.2 2.2 0 0 0 4 0" fill="none" stroke="currentColor" stroke-width="1.5" stroke-linecap="round" stroke-linejoin="round"/></symbol>
    <symbol id="i-sun" viewBox="0 0 24 24"><circle cx="12" cy="12" r="4.2" fill="none" stroke="currentColor" stroke-width="1.5"/><path d="M12 2.5v2m0 15v2M4.8 4.8l1.4 1.4m11.6 11.6 1.4 1.4m0-14.4-1.4 1.4M6.2 17.8l-1.4 1.4M2.5 12h2m15 0h2" stroke="currentColor" stroke-width="1.5" stroke-linecap="round"/></symbol>
    <symbol id="i-moon" viewBox="0 0 24 24"><path d="M20.5 14.5A8.5 8.5 0 1 1 9.5 3.5a7 7 0 0 0 11 11Z" fill="none" stroke="currentColor" stroke-width="1.5" stroke-linejoin="round"/></symbol>
    <symbol id="i-x" viewBox="0 0 24 24"><path d="m6 6 12 12M18 6 6 18" stroke="currentColor" stroke-width="1.5" stroke-linecap="round"/></symbol>
    <symbol id="i-check" viewBox="0 0 24 24"><path d="m5 12.5 4.5 4.5L19 7.5" fill="none" stroke="currentColor" stroke-width="2.2" stroke-linecap="round" stroke-linejoin="round"/></symbol>
    <symbol id="i-flag" viewBox="0 0 24 24"><path d="M5 21V4.5 M5 4.5C8 2.5 11 6.5 14 5c2-1 3.5-1.5 5-1v9c-1.5-.5-3 0-5 1-3 1.5-6-2.5-9-.5" fill="none" stroke="currentColor" stroke-width="1.5" stroke-linecap="round" stroke-linejoin="round"/></symbol>
    <symbol id="i-cal" viewBox="0 0 24 24"><rect x="3.5" y="5" width="17" height="16" rx="3.5" fill="none" stroke="currentColor" stroke-width="1.5"/><path d="M3.5 9.5h17M8 2.8V6m8-3.2V6" stroke="currentColor" stroke-width="1.5" stroke-linecap="round"/></symbol>
    <symbol id="i-tag" viewBox="0 0 24 24"><path d="m3 11.5 8.5 8.5a2 2 0 0 0 2.8 0l6.2-6.2a2 2 0 0 0 0-2.8L12 2.5H4.5a1.5 1.5 0 0 0-1.5 1.5Z" fill="none" stroke="currentColor" stroke-width="1.5" stroke-linejoin="round"/><circle cx="8" cy="7.5" r="1.3" fill="currentColor"/></symbol>
    <symbol id="i-zap" viewBox="0 0 24 24"><path d="M13 2.5 4.5 13.5h6L11 21.5l8.5-11h-6Z" fill="none" stroke="currentColor" stroke-width="1.5" stroke-linejoin="round"/></symbol>
    <symbol id="i-flame" viewBox="0 0 24 24"><path d="M12 21.5c4 0 6.5-2.6 6.5-6.2 0-3.4-2.3-5.5-4-8.3-.4 2-1.3 2.9-2.5 3.7C10.6 8 10.2 5 10.5 2.5 7 5 5.5 9 5.5 12.5c0 5 2.5 9 6.5 9Z" fill="none" stroke="currentColor" stroke-width="1.5" stroke-linejoin="round"/></symbol>
    <symbol id="i-folder" viewBox="0 0 24 24"><path d="M3.5 7A2.5 2.5 0 0 1 6 4.5h3.5l2 2.5H18A2.5 2.5 0 0 1 20.5 9.5V17A2.5 2.5 0 0 1 18 19.5H6A2.5 2.5 0 0 1 3.5 17Z" fill="none" stroke="currentColor" stroke-width="1.5" stroke-linejoin="round"/></symbol>
    <symbol id="i-plus" viewBox="0 0 24 24"><path d="M12 5v14M5 12h14" stroke="currentColor" stroke-width="1.5" stroke-linecap="round"/></symbol>
    <symbol id="i-pause" viewBox="0 0 24 24"><rect x="6.5" y="5" width="3.6" height="14" rx="1.6" fill="currentColor"/><rect x="13.9" y="5" width="3.6" height="14" rx="1.6" fill="currentColor"/></symbol>
    <symbol id="i-clock" viewBox="0 0 24 24"><circle cx="12" cy="12" r="8.5" fill="none" stroke="currentColor" stroke-width="1.5"/><path d="M12 7.5V12l3 2" fill="none" stroke="currentColor" stroke-width="1.5" stroke-linecap="round"/></symbol>
    <symbol id="i-dot" viewBox="0 0 24 24"><circle cx="12" cy="12" r="8.5" fill="none" stroke="currentColor" stroke-width="1.5"/><circle cx="12" cy="12" r="3" fill="currentColor"/></symbol>
    <symbol id="i-rain" viewBox="0 0 24 24"><path d="M17.5 11.5a4.5 4.5 0 0 0-.4-9A6 6 0 0 0 5.7 5.6 4 4 0 0 0 6.5 13.5h11Z M8 16l-1 3m5-3-1 3m5-3-1 3" fill="none" stroke="currentColor" stroke-width="1.5" stroke-linecap="round" stroke-linejoin="round"/></symbol>
    <symbol id="i-activity" viewBox="0 0 24 24"><path d="M3 12h4l2.5-7 4 14 2.5-7H21" fill="none" stroke="currentColor" stroke-width="1.5" stroke-linecap="round" stroke-linejoin="round"/></symbol>
    <symbol id="i-sunrise" viewBox="0 0 24 24"><path d="M12 9V3.5 M9.5 6 12 3.5 14.5 6 M5 18.5a7 7 0 0 1 14 0 M2.5 21.5h19 M3 14.5l1.8.8m16.2-.8-1.8.8" fill="none" stroke="currentColor" stroke-width="1.5" stroke-linecap="round" stroke-linejoin="round"/></symbol>
    <symbol id="i-trend" viewBox="0 0 24 24"><path d="m3.5 17 5.5-5.5 3.5 3.5 7.5-7.5 M15 7.5h5v5" fill="none" stroke="currentColor" stroke-width="1.5" stroke-linecap="round" stroke-linejoin="round"/></symbol>
</defs></svg>
